<?xml version="1.0" standalone="no"?>
<!DOCTYPE svg PUBLIC "-//W3C//DTD SVG 20010904//EN"
 "http://www.w3.org/TR/2001/REC-SVG-20010904/DTD/svg10.dtd">
<svg version="1.0" xmlns="http://www.w3.org/2000/svg"
 width="667.000000pt" height="667.000000pt" viewBox="0 0 667.000000 667.000000"
 preserveAspectRatio="xMidYMid meet">
<metadata>
Created by potrace 1.14, written by Peter Selinger 2001-2017
</metadata>
<g transform="translate(0.000000,667.000000) scale(0.100000,-0.100000)"
fill="#000000" stroke="none">
<path d="M3030 5559 c-154 -22 -273 -51 -405 -96 -55 -19 -106 -35 -112 -35
-7 -1 -13 -5 -13 -9 0 -4 -12 -10 -27 -14 -26 -6 -228 -102 -248 -118 -5 -4
-36 -23 -67 -41 -55 -33 -235 -164 -269 -196 -8 -8 -41 -38 -71 -67 l-57 -51
-201 0 c-110 0 -204 -2 -207 -6 -3 -3 -6 -131 -6 -283 l1 -278 -29 -63 c-16
-34 -29 -65 -29 -70 0 -4 -6 -19 -14 -34 -28 -53 -93 -258 -111 -348 -3 -14
-8 -36 -10 -50 -3 -14 -8 -37 -10 -52 -3 -16 -7 -40 -10 -55 -19 -102 -27
-461 -13 -568 4 -27 10 -71 13 -96 3 -26 8 -55 10 -65 2 -11 11 -51 19 -90 9
-40 18 -78 20 -85 2 -8 14 -48 27 -89 12 -41 25 -79 29 -85 4 -5 10 -23 14
-39 4 -16 25 -67 47 -114 37 -79 46 -107 48 -139 1 -7 7 -13 14 -13 8 0 19
-12 25 -26 12 -25 11 -25 -20 -19 -37 7 -56 9 -148 20 -36 4 -76 9 -90 11 -93
11 -266 18 -452 18 -209 0 -218 -1 -247 -22 -17 -12 -32 -22 -35 -22 -3 0 -65
-36 -140 -80 -74 -44 -140 -80 -145 -80 -6 0 -11 -4 -11 -9 0 -5 -8 -11 -17
-14 -10 -3 -31 -14 -48 -24 -17 -10 -31 -18 -32 -19 -2 0 9 -39 23 -85 14 -46
27 -88 28 -94 1 -5 10 -36 19 -67 10 -32 17 -60 17 -63 0 -3 7 -19 15 -35 9
-17 13 -30 11 -30 -3 0 2 -19 10 -42 8 -23 11 -50 7 -62 -4 -12 -8 -23 -8 -26
-1 -3 -5 -18 -10 -35 -4 -16 -14 -40 -21 -53 -8 -12 -12 -22 -9 -22 2 0 0 -12
-5 -26 -7 -18 -7 -39 1 -67 14 -50 17 -67 18 -87 3 -36 15 -41 67 -25 27 8
103 26 169 40 158 35 154 34 195 40 20 3 47 8 60 10 73 15 128 23 195 30 33 4
62 8 65 10 3 2 43 6 89 10 45 4 93 8 104 11 119 23 712 23 897 -1 19 -2 58 -7
85 -11 28 -3 64 -8 80 -10 17 -1 30 -3 30 -4 0 -1 14 -4 30 -6 31 -5 154 -30
215 -44 113 -27 264 -75 367 -118 40 -16 75 -27 78 -24 3 3 5 1 5 -5 0 -6 13
-16 29 -21 27 -10 45 -44 55 -102 1 -3 12 -26 24 -52 64 -129 220 -203 420
-197 42 1 95 6 117 12 22 5 45 10 50 11 98 20 234 179 237 275 1 17 6 35 12
40 21 17 338 124 398 134 13 2 30 6 38 10 13 5 51 15 85 22 34 8 233 48 254
51 14 2 36 6 48 9 12 3 44 8 70 10 27 3 62 7 78 10 34 4 142 14 230 21 157 12
536 6 690 -11 22 -2 63 -7 90 -10 28 -3 68 -8 90 -11 22 -3 51 -7 65 -9 32 -4
192 -33 250 -45 25 -6 56 -13 70 -16 14 -2 33 -7 42 -10 9 -3 25 -6 35 -8 23
-5 183 -52 204 -61 18 -7 24 6 59 116 19 62 20 67 4 104 -39 95 -55 162 -43
192 6 15 12 35 14 44 4 19 57 192 91 299 29 89 29 96 7 103 -24 8 -77 40 -81
50 -2 4 -8 7 -14 7 -6 0 -62 32 -125 70 -63 39 -116 70 -119 70 -2 0 -23 12
-47 27 l-43 28 -225 -1 c-215 -1 -347 -7 -447 -19 -26 -3 -63 -8 -82 -10 -19
-3 -55 -7 -80 -10 -25 -3 -60 -7 -77 -10 -38 -4 -40 2 -15 36 9 13 35 62 56
109 21 47 42 93 47 102 9 19 49 128 52 143 2 6 5 15 8 20 4 6 10 24 14 40 4
17 9 39 12 50 3 11 9 45 14 75 5 30 11 64 13 75 11 54 20 103 31 170 22 139
23 463 1 585 -3 14 -7 45 -10 70 -22 169 -103 414 -205 620 l-48 95 1 228 c1
126 -2 233 -5 239 -4 6 -77 10 -189 10 l-183 1 -56 52 c-153 144 -331 267
-521 360 -107 53 -283 124 -305 125 -3 0 -18 6 -33 14 -15 8 -44 17 -62 19
-19 3 -35 6 -35 7 0 2 3 1 -135 28 -160 31 -190 34 -400 37 -146 2 -226 -2
-320 -16z"/>
</g>
</svg>
